<svg width="41" height="41" viewBox="0 0 41 41" fill="none" xmlns="http://www.w3.org/2000/svg">
<g clip-path="url(#clip0_94_659)">
<path fill-rule="evenodd" clip-rule="evenodd" d="M20.5 2.27084C21.2137 2.27084 21.8733 2.65114 22.2309 3.26877L41.0225 35.7271C41.3807 36.3458 41.3814 37.1088 41.0243 37.7281C40.6672 38.3475 40.0066 38.7292 39.2917 38.7292H1.70834C0.993377 38.7292 0.332796 38.3475 -0.0243131 37.7281C-0.381422 37.1088 -0.380737 36.3458 -0.0225167 35.7271L18.7691 3.26877C19.1267 2.65114 19.7863 2.27084 20.5 2.27084ZM5.17723 34.7292H35.8228L20.5 8.26257L5.17723 34.7292Z" fill="black"/>
<path fill-rule="evenodd" clip-rule="evenodd" d="M20.4984 14.2292C21.603 14.2283 22.4991 15.123 22.5 16.2276L22.5068 24.7693C22.5077 25.8738 21.613 26.77 20.5084 26.7709C19.4039 26.7717 18.5077 25.877 18.5068 24.7725L18.5 16.2308C18.4991 15.1262 19.3938 14.2301 20.4984 14.2292ZM20.5 27.8959C21.6046 27.8959 22.5 28.7913 22.5 29.8959V30.75C22.5 31.8546 21.6046 32.75 20.5 32.75C19.3954 32.75 18.5 31.8546 18.5 30.75V29.8959C18.5 28.7913 19.3954 27.8959 20.5 27.8959Z" fill="black"/>
</g>
<defs>
<clipPath id="clip0_94_659">
<rect width="41" height="41" fill="white"/>
</clipPath>
</defs>
</svg>
