<svg width="42" height="37" viewBox="0 0 42 37" fill="none" xmlns="http://www.w3.org/2000/svg">
<g clip-path="url(#clip0_132_205)">
<path d="M14.553 24.3006C11.5676 23.0589 9.15299 20.9633 7.70621 18.3584C6.25943 15.7536 5.86663 12.7946 6.5924 9.96797C7.31817 7.14137 9.11931 4.61549 11.6996 2.80569C14.2799 0.995888 17.4858 0.00991821 20.79 0.00991821C24.0942 0.00991821 27.3001 0.995888 29.8804 2.80569C32.4607 4.61549 34.2618 7.14137 34.9876 9.96797C35.7134 12.7946 35.3206 15.7536 33.8738 18.3584C32.427 20.9633 30.0124 23.0589 27.027 24.3006V29.168H14.553V24.3006ZM14.553 30.991H27.027V33.7255C27.027 35.2386 25.6341 36.46 23.9085 36.46H17.6715C16.8444 36.46 16.0512 36.1719 15.4664 35.6591C14.8816 35.1463 14.553 34.4507 14.553 33.7255V30.991ZM18.711 21.6937V25.522H22.869V21.6937C25.393 21.2419 27.6358 19.9845 29.1625 18.1651C30.6893 16.3458 31.3913 14.0941 31.1324 11.8467C30.8734 9.59932 29.6721 7.51627 27.7612 6.00142C25.8503 4.48658 23.366 3.64785 20.79 3.64785C18.214 3.64785 15.7297 4.48658 13.8188 6.00142C11.9079 7.51627 10.7066 9.59932 10.4476 11.8467C10.1887 14.0941 10.8907 16.3458 12.4175 18.1651C13.9442 19.9845 16.187 21.2419 18.711 21.6937Z" fill="black"/>
</g>
<defs>
<clipPath id="clip0_132_205">
<rect width="41.58" height="36.46" fill="white"/>
</clipPath>
</defs>
</svg>
